<svg xmlns="http://www.w3.org/2000/svg" width="18" height="17" viewBox="0 0 18 17" fill="#fff">
<path d="M15.1915 9.31663C15.2249 9.04996 15.2499 8.78329 15.2499 8.49996C15.2499 8.21663 15.2249 7.94996 15.1915 7.68329L16.9499 6.30829C17.1082 6.18329 17.1499 5.95829 17.0499 5.77496L15.3832 2.89163C15.2832 2.70829 15.0582 2.64163 14.8749 2.70829L12.7999 3.54163C12.3665 3.20829 11.8999 2.93329 11.3915 2.72496L11.0749 0.516626C11.0499 0.316626 10.8749 0.166626 10.6665 0.166626H7.3332C7.12487 0.166626 6.94987 0.316626 6.92487 0.516626L6.6082 2.72496C6.09987 2.93329 5.6332 3.21663 5.19987 3.54163L3.12487 2.70829C2.9332 2.63329 2.71653 2.70829 2.61653 2.89163L0.949866 5.77496C0.841533 5.95829 0.891533 6.18329 1.04987 6.30829L2.8082 7.68329C2.77487 7.94996 2.74987 8.22496 2.74987 8.49996C2.74987 8.77496 2.77487 9.04996 2.8082 9.31663L1.04987 10.6916C0.891533 10.8166 0.849866 11.0416 0.949866 11.225L2.61653 14.1083C2.71653 14.2916 2.94153 14.3583 3.12487 14.2916L5.19987 13.4583C5.6332 13.7916 6.09987 14.0666 6.6082 14.275L6.92487 16.4833C6.94987 16.6833 7.12487 16.8333 7.3332 16.8333H10.6665C10.8749 16.8333 11.0499 16.6833 11.0749 16.4833L11.3915 14.275C11.8999 14.0666 12.3665 13.7833 12.7999 13.4583L14.8749 14.2916C15.0665 14.3666 15.2832 14.2916 15.3832 14.1083L17.0499 11.225C17.1499 11.0416 17.1082 10.8166 16.9499 10.6916L15.1915 9.31663ZM8.99987 11.4166C7.39153 11.4166 6.0832 10.1083 6.0832 8.49996C6.0832 6.89163 7.39153 5.58329 8.99987 5.58329C10.6082 5.58329 11.9165 6.89163 11.9165 8.49996C11.9165 10.1083 10.6082 11.4166 8.99987 11.4166Z" fill="#F7F8FA"/>
</svg>